<?xml version="1.0" encoding="UTF-8" standalone="no"?>
<!DOCTYPE svg PUBLIC "-//W3C//DTD SVG 1.1//EN"
 "http://www.w3.org/Graphics/SVG/1.1/DTD/svg11.dtd">
<!-- Generated by graphviz version 2.43.0 (0)
 -->
<!-- Title: G Pages: 1 -->
<svg width="1485pt" height="312pt"
 viewBox="0.00 0.00 1485.20 312.20" xmlns="http://www.w3.org/2000/svg" xmlns:xlink="http://www.w3.org/1999/xlink">
<g id="graph0" class="graph" transform="scale(1 1) rotate(0) translate(21.6 290.6)">
<title>G</title>
<polygon fill="#111111" stroke="transparent" points="-21.6,21.6 -21.6,-290.6 1463.6,-290.6 1463.6,21.6 -21.6,21.6"/>
<!-- build/static/js/2.dedd86ed.chunk.js -->
<g id="node1" class="node">
<title>build/static/js/2.dedd86ed.chunk.js</title>
<path fill="none" stroke="#cfffac" d="M230.33,-23C230.33,-23 23.67,-23 23.67,-23 19.83,-23 16,-19.17 16,-15.33 16,-15.33 16,-7.67 16,-7.67 16,-3.83 19.83,0 23.67,0 23.67,0 230.33,0 230.33,0 234.17,0 238,-3.83 238,-7.67 238,-7.67 238,-15.33 238,-15.33 238,-19.17 234.17,-23 230.33,-23"/>
<text text-anchor="middle" x="127" y="-7.8" font-family="Arial" font-size="14.00" fill="#cfffac">build/static/js/2.dedd86ed.chunk.js</text>
</g>
<!-- build/static/js/3.715b73ad.chunk.js -->
<g id="node2" class="node">
<title>build/static/js/3.715b73ad.chunk.js</title>
<path fill="none" stroke="#cfffac" d="M230.33,-64C230.33,-64 23.67,-64 23.67,-64 19.83,-64 16,-60.17 16,-56.33 16,-56.33 16,-48.67 16,-48.67 16,-44.83 19.83,-41 23.67,-41 23.67,-41 230.33,-41 230.33,-41 234.17,-41 238,-44.83 238,-48.67 238,-48.67 238,-56.33 238,-56.33 238,-60.17 234.17,-64 230.33,-64"/>
<text text-anchor="middle" x="127" y="-48.8" font-family="Arial" font-size="14.00" fill="#cfffac">build/static/js/3.715b73ad.chunk.js</text>
</g>
<!-- build/static/js/main.4b5faf6b.chunk.js -->
<g id="node3" class="node">
<title>build/static/js/main.4b5faf6b.chunk.js</title>
<path fill="none" stroke="#cfffac" d="M237.83,-105C237.83,-105 16.17,-105 16.17,-105 12.33,-105 8.5,-101.17 8.5,-97.33 8.5,-97.33 8.5,-89.67 8.5,-89.67 8.5,-85.83 12.33,-82 16.17,-82 16.17,-82 237.83,-82 237.83,-82 241.67,-82 245.5,-85.83 245.5,-89.67 245.5,-89.67 245.5,-97.33 245.5,-97.33 245.5,-101.17 241.67,-105 237.83,-105"/>
<text text-anchor="middle" x="127" y="-89.8" font-family="Arial" font-size="14.00" fill="#cfffac">build/static/js/main.4b5faf6b.chunk.js</text>
</g>
<!-- build/static/js/runtime&#45;main.457cb0be.js -->
<g id="node4" class="node">
<title>build/static/js/runtime&#45;main.457cb0be.js</title>
<path fill="none" stroke="#cfffac" d="M246.33,-146C246.33,-146 7.67,-146 7.67,-146 3.83,-146 0,-142.17 0,-138.33 0,-138.33 0,-130.67 0,-130.67 0,-126.83 3.83,-123 7.67,-123 7.67,-123 246.33,-123 246.33,-123 250.17,-123 254,-126.83 254,-130.67 254,-130.67 254,-138.33 254,-138.33 254,-142.17 250.17,-146 246.33,-146"/>
<text text-anchor="middle" x="127" y="-130.8" font-family="Arial" font-size="14.00" fill="#cfffac">build/static/js/runtime&#45;main.457cb0be.js</text>
</g>
<!-- src/App.css -->
<g id="node5" class="node">
<title>src/App.css</title>
<path fill="none" stroke="#cfffac" d="M681.83,-269C681.83,-269 611.17,-269 611.17,-269 607.33,-269 603.5,-265.17 603.5,-261.33 603.5,-261.33 603.5,-253.67 603.5,-253.67 603.5,-249.83 607.33,-246 611.17,-246 611.17,-246 681.83,-246 681.83,-246 685.67,-246 689.5,-249.83 689.5,-253.67 689.5,-253.67 689.5,-261.33 689.5,-261.33 689.5,-265.17 685.67,-269 681.83,-269"/>
<text text-anchor="middle" x="646.5" y="-253.8" font-family="Arial" font-size="14.00" fill="#cfffac">src/App.css</text>
</g>
<!-- src/App.js -->
<g id="node6" class="node">
<title>src/App.js</title>
<path fill="none" stroke="#c6c5fe" d="M394.33,-228C394.33,-228 333.67,-228 333.67,-228 329.83,-228 326,-224.17 326,-220.33 326,-220.33 326,-212.67 326,-212.67 326,-208.83 329.83,-205 333.67,-205 333.67,-205 394.33,-205 394.33,-205 398.17,-205 402,-208.83 402,-212.67 402,-212.67 402,-220.33 402,-220.33 402,-224.17 398.17,-228 394.33,-228"/>
<text text-anchor="middle" x="364" y="-212.8" font-family="Arial" font-size="14.00" fill="#c6c5fe">src/App.js</text>
</g>
<!-- src/App.js&#45;&gt;src/App.css -->
<g id="edge1" class="edge">
<title>src/App.js&#45;&gt;src/App.css</title>
<path fill="none" stroke="#757575" d="M402.21,-224.38C423.22,-228.65 450,-233.79 474,-237.5 513.87,-243.66 559.21,-248.87 593.26,-252.43"/>
<polygon fill="#757575" stroke="#757575" points="593.14,-255.93 603.45,-253.48 593.86,-248.97 593.14,-255.93"/>
</g>
<!-- src/components/card&#45;list/card&#45;list.component.jsx -->
<g id="node7" class="node">
<title>src/components/card&#45;list/card&#45;list.component.jsx</title>
<path fill="none" stroke="#c6c5fe" d="M791.83,-228C791.83,-228 501.17,-228 501.17,-228 497.33,-228 493.5,-224.17 493.5,-220.33 493.5,-220.33 493.5,-212.67 493.5,-212.67 493.5,-208.83 497.33,-205 501.17,-205 501.17,-205 791.83,-205 791.83,-205 795.67,-205 799.5,-208.83 799.5,-212.67 799.5,-212.67 799.5,-220.33 799.5,-220.33 799.5,-224.17 795.67,-228 791.83,-228"/>
<text text-anchor="middle" x="646.5" y="-212.8" font-family="Arial" font-size="14.00" fill="#c6c5fe">src/components/card&#45;list/card&#45;list.component.jsx</text>
</g>
<!-- src/App.js&#45;&gt;src/components/card&#45;list/card&#45;list.component.jsx -->
<g id="edge2" class="edge">
<title>src/App.js&#45;&gt;src/components/card&#45;list/card&#45;list.component.jsx</title>
<path fill="none" stroke="#757575" d="M402.25,-216.5C423.87,-216.5 452.78,-216.5 483.1,-216.5"/>
<polygon fill="#757575" stroke="#757575" points="483.42,-220 493.42,-216.5 483.42,-213 483.42,-220"/>
</g>
<!-- src/components/search&#45;box/search&#45;box.component.jsx -->
<g id="node8" class="node">
<title>src/components/search&#45;box/search&#45;box.component.jsx</title>
<path fill="none" stroke="#c6c5fe" d="M811.33,-187C811.33,-187 481.67,-187 481.67,-187 477.83,-187 474,-183.17 474,-179.33 474,-179.33 474,-171.67 474,-171.67 474,-167.83 477.83,-164 481.67,-164 481.67,-164 811.33,-164 811.33,-164 815.17,-164 819,-167.83 819,-171.67 819,-171.67 819,-179.33 819,-179.33 819,-183.17 815.17,-187 811.33,-187"/>
<text text-anchor="middle" x="646.5" y="-171.8" font-family="Arial" font-size="14.00" fill="#c6c5fe">src/components/search&#45;box/search&#45;box.component.jsx</text>
</g>
<!-- src/App.js&#45;&gt;src/components/search&#45;box/search&#45;box.component.jsx -->
<g id="edge3" class="edge">
<title>src/App.js&#45;&gt;src/components/search&#45;box/search&#45;box.component.jsx</title>
<path fill="none" stroke="#757575" d="M402.24,-209.1C423.26,-205.06 450.04,-200.16 474,-196.5 492.94,-193.61 513.1,-190.85 532.7,-188.34"/>
<polygon fill="#757575" stroke="#757575" points="533.4,-191.78 542.89,-187.05 532.53,-184.83 533.4,-191.78"/>
</g>
<!-- src/components/card&#45;list/card&#45;list.styles.css -->
<g id="node10" class="node">
<title>src/components/card&#45;list/card&#45;list.styles.css</title>
<path fill="none" stroke="#cfffac" d="M1143.83,-269C1143.83,-269 882.17,-269 882.17,-269 878.33,-269 874.5,-265.17 874.5,-261.33 874.5,-261.33 874.5,-253.67 874.5,-253.67 874.5,-249.83 878.33,-246 882.17,-246 882.17,-246 1143.83,-246 1143.83,-246 1147.67,-246 1151.5,-249.83 1151.5,-253.67 1151.5,-253.67 1151.5,-261.33 1151.5,-261.33 1151.5,-265.17 1147.67,-269 1143.83,-269"/>
<text text-anchor="middle" x="1013" y="-253.8" font-family="Arial" font-size="14.00" fill="#cfffac">src/components/card&#45;list/card&#45;list.styles.css</text>
</g>
<!-- src/components/card&#45;list/card&#45;list.component.jsx&#45;&gt;src/components/card&#45;list/card&#45;list.styles.css -->
<g id="edge5" class="edge">
<title>src/components/card&#45;list/card&#45;list.component.jsx&#45;&gt;src/components/card&#45;list/card&#45;list.styles.css</title>
<path fill="none" stroke="#757575" d="M750,-228.03C796.59,-233.27 851.85,-239.49 899.57,-244.85"/>
<polygon fill="#757575" stroke="#757575" points="899.31,-248.35 909.63,-245.99 900.09,-241.39 899.31,-248.35"/>
</g>
<!-- src/components/card/card.component.jsx -->
<g id="node11" class="node">
<title>src/components/card/card.component.jsx</title>
<path fill="none" stroke="#c6c5fe" d="M1137.33,-228C1137.33,-228 888.67,-228 888.67,-228 884.83,-228 881,-224.17 881,-220.33 881,-220.33 881,-212.67 881,-212.67 881,-208.83 884.83,-205 888.67,-205 888.67,-205 1137.33,-205 1137.33,-205 1141.17,-205 1145,-208.83 1145,-212.67 1145,-212.67 1145,-220.33 1145,-220.33 1145,-224.17 1141.17,-228 1137.33,-228"/>
<text text-anchor="middle" x="1013" y="-212.8" font-family="Arial" font-size="14.00" fill="#c6c5fe">src/components/card/card.component.jsx</text>
</g>
<!-- src/components/card&#45;list/card&#45;list.component.jsx&#45;&gt;src/components/card/card.component.jsx -->
<g id="edge6" class="edge">
<title>src/components/card&#45;list/card&#45;list.component.jsx&#45;&gt;src/components/card/card.component.jsx</title>
<path fill="none" stroke="#757575" d="M799.71,-216.5C823.17,-216.5 847.32,-216.5 870.54,-216.5"/>
<polygon fill="#757575" stroke="#757575" points="870.78,-220 880.78,-216.5 870.78,-213 870.78,-220"/>
</g>
<!-- src/components/search&#45;box/search&#45;box.styles.css -->
<g id="node13" class="node">
<title>src/components/search&#45;box/search&#45;box.styles.css</title>
<path fill="none" stroke="#cfffac" d="M1163.33,-187C1163.33,-187 862.67,-187 862.67,-187 858.83,-187 855,-183.17 855,-179.33 855,-179.33 855,-171.67 855,-171.67 855,-167.83 858.83,-164 862.67,-164 862.67,-164 1163.33,-164 1163.33,-164 1167.17,-164 1171,-167.83 1171,-171.67 1171,-171.67 1171,-179.33 1171,-179.33 1171,-183.17 1167.17,-187 1163.33,-187"/>
<text text-anchor="middle" x="1013" y="-171.8" font-family="Arial" font-size="14.00" fill="#cfffac">src/components/search&#45;box/search&#45;box.styles.css</text>
</g>
<!-- src/components/search&#45;box/search&#45;box.component.jsx&#45;&gt;src/components/search&#45;box/search&#45;box.styles.css -->
<g id="edge8" class="edge">
<title>src/components/search&#45;box/search&#45;box.component.jsx&#45;&gt;src/components/search&#45;box/search&#45;box.styles.css</title>
<path fill="none" stroke="#757575" d="M819.08,-175.5C827.64,-175.5 836.23,-175.5 844.78,-175.5"/>
<polygon fill="#757575" stroke="#757575" points="844.78,-179 854.78,-175.5 844.78,-172 844.78,-179"/>
</g>
<!-- src/App.test.js -->
<g id="node9" class="node">
<title>src/App.test.js</title>
<path fill="none" stroke="#c6c5fe" d="M169.83,-228C169.83,-228 84.17,-228 84.17,-228 80.33,-228 76.5,-224.17 76.5,-220.33 76.5,-220.33 76.5,-212.67 76.5,-212.67 76.5,-208.83 80.33,-205 84.17,-205 84.17,-205 169.83,-205 169.83,-205 173.67,-205 177.5,-208.83 177.5,-212.67 177.5,-212.67 177.5,-220.33 177.5,-220.33 177.5,-224.17 173.67,-228 169.83,-228"/>
<text text-anchor="middle" x="127" y="-212.8" font-family="Arial" font-size="14.00" fill="#c6c5fe">src/App.test.js</text>
</g>
<!-- src/App.test.js&#45;&gt;src/App.js -->
<g id="edge4" class="edge">
<title>src/App.test.js&#45;&gt;src/App.js</title>
<path fill="none" stroke="#757575" d="M177.55,-216.5C218.31,-216.5 275.68,-216.5 315.78,-216.5"/>
<polygon fill="#757575" stroke="#757575" points="315.84,-220 325.84,-216.5 315.84,-213 315.84,-220"/>
</g>
<!-- src/components/card/card.styles.css -->
<g id="node12" class="node">
<title>src/components/card/card.styles.css</title>
<path fill="none" stroke="#cfffac" d="M1434.33,-228C1434.33,-228 1214.67,-228 1214.67,-228 1210.83,-228 1207,-224.17 1207,-220.33 1207,-220.33 1207,-212.67 1207,-212.67 1207,-208.83 1210.83,-205 1214.67,-205 1214.67,-205 1434.33,-205 1434.33,-205 1438.17,-205 1442,-208.83 1442,-212.67 1442,-212.67 1442,-220.33 1442,-220.33 1442,-224.17 1438.17,-228 1434.33,-228"/>
<text text-anchor="middle" x="1324.5" y="-212.8" font-family="Arial" font-size="14.00" fill="#cfffac">src/components/card/card.styles.css</text>
</g>
<!-- src/components/card/card.component.jsx&#45;&gt;src/components/card/card.styles.css -->
<g id="edge7" class="edge">
<title>src/components/card/card.component.jsx&#45;&gt;src/components/card/card.styles.css</title>
<path fill="none" stroke="#757575" d="M1145.26,-216.5C1162.17,-216.5 1179.48,-216.5 1196.33,-216.5"/>
<polygon fill="#757575" stroke="#757575" points="1196.75,-220 1206.75,-216.5 1196.75,-213 1196.75,-220"/>
</g>
<!-- src/index.css -->
<g id="node14" class="node">
<title>src/index.css</title>
<path fill="none" stroke="#cfffac" d="M403.83,-187C403.83,-187 324.17,-187 324.17,-187 320.33,-187 316.5,-183.17 316.5,-179.33 316.5,-179.33 316.5,-171.67 316.5,-171.67 316.5,-167.83 320.33,-164 324.17,-164 324.17,-164 403.83,-164 403.83,-164 407.67,-164 411.5,-167.83 411.5,-171.67 411.5,-171.67 411.5,-179.33 411.5,-179.33 411.5,-183.17 407.67,-187 403.83,-187"/>
<text text-anchor="middle" x="364" y="-171.8" font-family="Arial" font-size="14.00" fill="#cfffac">src/index.css</text>
</g>
<!-- src/index.js -->
<g id="node15" class="node">
<title>src/index.js</title>
<path fill="none" stroke="#c6c5fe" d="M161.33,-187C161.33,-187 92.67,-187 92.67,-187 88.83,-187 85,-183.17 85,-179.33 85,-179.33 85,-171.67 85,-171.67 85,-167.83 88.83,-164 92.67,-164 92.67,-164 161.33,-164 161.33,-164 165.17,-164 169,-167.83 169,-171.67 169,-171.67 169,-179.33 169,-179.33 169,-183.17 165.17,-187 161.33,-187"/>
<text text-anchor="middle" x="127" y="-171.8" font-family="Arial" font-size="14.00" fill="#c6c5fe">src/index.js</text>
</g>
<!-- src/index.js&#45;&gt;src/App.js -->
<g id="edge9" class="edge">
<title>src/index.js&#45;&gt;src/App.js</title>
<path fill="none" stroke="#757575" d="M169.17,-182.19C193.8,-186.23 225.71,-191.55 254,-196.5 274.24,-200.04 296.57,-204.11 315.71,-207.65"/>
<polygon fill="#757575" stroke="#757575" points="315.23,-211.12 325.7,-209.5 316.5,-204.24 315.23,-211.12"/>
</g>
<!-- src/index.js&#45;&gt;src/index.css -->
<g id="edge10" class="edge">
<title>src/index.js&#45;&gt;src/index.css</title>
<path fill="none" stroke="#757575" d="M169.2,-175.5C207.14,-175.5 263.79,-175.5 306.05,-175.5"/>
<polygon fill="#757575" stroke="#757575" points="306.19,-179 316.19,-175.5 306.19,-172 306.19,-179"/>
</g>
<!-- src/reportWebVitals.js -->
<g id="node16" class="node">
<title>src/reportWebVitals.js</title>
<path fill="none" stroke="#cfffac" d="M430.33,-146C430.33,-146 297.67,-146 297.67,-146 293.83,-146 290,-142.17 290,-138.33 290,-138.33 290,-130.67 290,-130.67 290,-126.83 293.83,-123 297.67,-123 297.67,-123 430.33,-123 430.33,-123 434.17,-123 438,-126.83 438,-130.67 438,-130.67 438,-138.33 438,-138.33 438,-142.17 434.17,-146 430.33,-146"/>
<text text-anchor="middle" x="364" y="-130.8" font-family="Arial" font-size="14.00" fill="#cfffac">src/reportWebVitals.js</text>
</g>
<!-- src/index.js&#45;&gt;src/reportWebVitals.js -->
<g id="edge11" class="edge">
<title>src/index.js&#45;&gt;src/reportWebVitals.js</title>
<path fill="none" stroke="#757575" d="M169.17,-168.81C193.8,-164.77 225.71,-159.45 254,-154.5 266.04,-152.39 278.81,-150.1 291.22,-147.84"/>
<polygon fill="#757575" stroke="#757575" points="291.86,-151.28 301.07,-146.05 290.6,-144.4 291.86,-151.28"/>
</g>
<!-- src/setupTests.js -->
<g id="node17" class="node">
<title>src/setupTests.js</title>
<path fill="none" stroke="#cfffac" d="M177.33,-269C177.33,-269 76.67,-269 76.67,-269 72.83,-269 69,-265.17 69,-261.33 69,-261.33 69,-253.67 69,-253.67 69,-249.83 72.83,-246 76.67,-246 76.67,-246 177.33,-246 177.33,-246 181.17,-246 185,-249.83 185,-253.67 185,-253.67 185,-261.33 185,-261.33 185,-265.17 181.17,-269 177.33,-269"/>
<text text-anchor="middle" x="127" y="-253.8" font-family="Arial" font-size="14.00" fill="#cfffac">src/setupTests.js</text>
</g>
</g>
</svg>
